<?xml version="1.0" encoding="iso-8859-1"?>
<!-- Generator: Adobe Illustrator 18.0.0, SVG Export Plug-In . SVG Version: 6.00 Build 0)  -->
<!DOCTYPE svg PUBLIC "-//W3C//DTD SVG 1.1//EN" "http://www.w3.org/Graphics/SVG/1.1/DTD/svg11.dtd">
<svg version="1.1" id="Capa_1" xmlns="http://www.w3.org/2000/svg" xmlns:xlink="http://www.w3.org/1999/xlink" x="0px" y="0px"
	 viewBox="0 0 326.318 326.318" style="enable-background:new 0 0 326.318 326.318;" xml:space="preserve">
<g>
	<g>
		<g>
			<path d="M62.393,230.875c-3.182,0-6.135-2.04-7.147-5.234c-12.024-37.908-7.325-76.479,11.694-95.979
				c2.893-2.966,7.641-3.027,10.605-0.133c2.966,2.893,3.025,7.641,0.133,10.605c-15.025,15.405-18.37,48.702-8.135,80.972
				c1.252,3.948-0.934,8.164-4.881,9.417C63.908,230.761,63.143,230.875,62.393,230.875z"/>
		</g>
		<path d="M286.196,110.701c-31.177-31.967-64.388-32.51-86.758-27.338c-12.568,2.906-23.058,7.857-30.279,11.975
			c-0.665-3.559-1.531-7.035-2.561-10.43c0.76,0.058,1.527,0.093,2.309,0.093c8.516,0,18.292-3.485,29.058-10.359
			c12.011-7.671,25.454-19.588,35.086-31.101c13.04-15.589,16.976-27.684,11.697-35.949C241.529,2.555,235.558,0,226.998,0
			c-17.881,0-45.949,11.102-62.758,21.835c-11.006,7.03-17.438,13.983-20.904,20.48c-8.745-10.934-18.043-19.718-25.365-25.9
			c-3.166-2.673-7.898-2.271-10.569,0.894c-2.672,3.165-2.272,7.898,0.894,10.569c14.517,12.254,37.639,35.688,45.059,65.384
			c-6.91-3.607-15.967-7.469-26.475-9.898c-22.37-5.173-55.58-4.628-86.758,27.338c-16.83,17.257-25.088,45.318-23.248,79.017
			c1.73,31.718,12.41,64.199,29.301,89.115c21.17,31.226,49.259,47.487,80.295,47.485c11.875-0.001,24.184-2.385,36.697-7.22
			c12.51,4.831,24.811,7.221,36.683,7.22c31.032-0.001,59.126-16.263,80.294-47.485c16.892-24.916,27.572-57.398,29.303-89.115
			C311.283,156.02,303.028,127.958,286.196,110.701z M172.315,34.477C188.847,23.919,213.889,15,226.998,15
			c3.066,0,4.504,0.491,5.03,0.735c0.058,1.859-1.898,8.349-11.965,19.916c-8.553,9.828-20.114,19.924-30.173,26.348
			c-8.197,5.235-15.454,8.002-20.984,8.002c-2.309,0-4.335-0.481-6.141-1.467L185.714,54.2c3.513-2.194,4.583-6.821,2.388-10.335
			c-2.193-3.514-6.822-4.583-10.334-2.388l-22.797,14.24C155.004,50.57,158.437,43.341,172.315,34.477z M294.467,188.9
			c-1.586,29.077-11.332,58.788-26.74,81.515c-14.998,22.125-48.154,55.924-101.691,33.684c-0.003-0.001-0.006-0.002-0.01-0.003
			c-0.297-0.123-3.246-1.155-5.744,0.003C107.694,328.49,73.589,292.54,58.59,270.415c-15.406-22.727-25.153-52.438-26.74-81.515
			c-1.584-29.03,5.346-53.716,19.01-67.727c20.984-21.516,45.254-29.36,72.139-23.311c20.672,4.649,35.359,16.092,35.506,16.207
			c2.73,2.159,6.495,2.109,9.155,0.109c0.052-0.035,14.989-11.667,35.66-16.316c26.883-6.047,51.154,1.795,72.138,23.311
			C289.123,135.185,296.051,159.87,294.467,188.9z"/>
	</g>
</g>
<g>
</g>
<g>
</g>
<g>
</g>
<g>
</g>
<g>
</g>
<g>
</g>
<g>
</g>
<g>
</g>
<g>
</g>
<g>
</g>
<g>
</g>
<g>
</g>
<g>
</g>
<g>
</g>
<g>
</g>
</svg>
