<?xml version="1.0" encoding="iso-8859-1"?>
<!-- Generator: Adobe Illustrator 18.0.0, SVG Export Plug-In . SVG Version: 6.00 Build 0)  -->
<!DOCTYPE svg PUBLIC "-//W3C//DTD SVG 1.1//EN" "http://www.w3.org/Graphics/SVG/1.1/DTD/svg11.dtd">
<svg version="1.1" id="Capa_1" xmlns="http://www.w3.org/2000/svg" xmlns:xlink="http://www.w3.org/1999/xlink" x="0px" y="0px"
	 viewBox="0 0 377.791 377.791" style="enable-background:new 0 0 377.791 377.791;" xml:space="preserve">
<g>
	<g>
		<g>
			<path d="M298.672,377.791H79.119c-19.732,0-35.785-16.053-35.785-35.785V35.787C43.334,16.054,59.387,0,79.119,0h219.553
				c19.732,0,35.785,16.054,35.785,35.787v306.219C334.457,361.738,318.404,377.791,298.672,377.791z M79.119,15
				c-11.461,0-20.785,9.325-20.785,20.787v306.219c0,11.461,9.324,20.785,20.785,20.785h219.553
				c11.461,0,20.785-9.324,20.785-20.785V35.787c0-11.462-9.324-20.787-20.785-20.787H79.119z"/>
		</g>
		<g>
			<g>
				<g>
					<path d="M120.33,169.391H87.781c-4.143,0-7.5-3.357-7.5-7.5V129.34c0-4.143,3.357-7.5,7.5-7.5h32.549
						c4.143,0,7.5,3.357,7.5,7.5v32.551C127.83,166.033,124.473,169.391,120.33,169.391z M95.281,154.391h17.549V136.84H95.281
						V154.391z"/>
				</g>
				<g>
					<path d="M290.01,169.391h-32.549c-4.143,0-7.5-3.357-7.5-7.5V129.34c0-4.143,3.357-7.5,7.5-7.5h32.549
						c4.143,0,7.5,3.357,7.5,7.5v32.551C297.51,166.033,294.152,169.391,290.01,169.391z M264.961,154.391h17.549V136.84h-17.549
						V154.391z"/>
				</g>
				<g>
					<path d="M176.891,169.391h-32.549c-4.143,0-7.5-3.357-7.5-7.5V129.34c0-4.143,3.357-7.5,7.5-7.5h32.549
						c4.143,0,7.5,3.357,7.5,7.5v32.551C184.391,166.033,181.033,169.391,176.891,169.391z M151.842,154.391h17.549V136.84h-17.549
						V154.391z"/>
				</g>
				<g>
					<path d="M233.451,169.391H200.9c-4.143,0-7.5-3.357-7.5-7.5V129.34c0-4.143,3.357-7.5,7.5-7.5h32.551
						c4.142,0,7.5,3.357,7.5,7.5v32.551C240.951,166.033,237.593,169.391,233.451,169.391z M208.4,154.391h17.551V136.84H208.4
						V154.391z"/>
				</g>
			</g>
			<g>
				<g>
					<path d="M120.33,227.299H87.781c-4.143,0-7.5-3.357-7.5-7.5v-32.551c0-4.143,3.357-7.5,7.5-7.5h32.549
						c4.143,0,7.5,3.357,7.5,7.5v32.551C127.83,223.941,124.473,227.299,120.33,227.299z M95.281,212.299h17.549v-17.551H95.281
						V212.299z"/>
				</g>
				<g>
					<path d="M290.01,227.299h-32.549c-4.143,0-7.5-3.357-7.5-7.5v-32.551c0-4.143,3.357-7.5,7.5-7.5h32.549
						c4.143,0,7.5,3.357,7.5,7.5v32.551C297.51,223.941,294.152,227.299,290.01,227.299z M264.961,212.299h17.549v-17.551h-17.549
						V212.299z"/>
				</g>
				<g>
					<path d="M176.891,227.299h-32.549c-4.143,0-7.5-3.357-7.5-7.5v-32.551c0-4.143,3.357-7.5,7.5-7.5h32.549
						c4.143,0,7.5,3.357,7.5,7.5v32.551C184.391,223.941,181.033,227.299,176.891,227.299z M151.842,212.299h17.549v-17.551h-17.549
						V212.299z"/>
				</g>
				<g>
					<path d="M233.451,227.299H200.9c-4.143,0-7.5-3.357-7.5-7.5v-32.551c0-4.143,3.357-7.5,7.5-7.5h32.551
						c4.142,0,7.5,3.357,7.5,7.5v32.551C240.951,223.941,237.593,227.299,233.451,227.299z M208.4,212.299h17.551v-17.551H208.4
						V212.299z"/>
				</g>
			</g>
			<g>
				<g>
					<path d="M120.33,285.205H87.781c-4.143,0-7.5-3.357-7.5-7.5v-32.549c0-4.143,3.357-7.5,7.5-7.5h32.549
						c4.143,0,7.5,3.357,7.5,7.5v32.549C127.83,281.848,124.473,285.205,120.33,285.205z M95.281,270.205h17.549v-17.549H95.281
						V270.205z"/>
				</g>
				<g>
					<path d="M176.891,285.205h-32.549c-4.143,0-7.5-3.357-7.5-7.5v-32.549c0-4.143,3.357-7.5,7.5-7.5h32.549
						c4.143,0,7.5,3.357,7.5,7.5v32.549C184.391,281.848,181.033,285.205,176.891,285.205z M151.842,270.205h17.549v-17.549h-17.549
						V270.205z"/>
				</g>
				<g>
					<path d="M233.451,285.205H200.9c-4.143,0-7.5-3.357-7.5-7.5v-32.549c0-4.143,3.357-7.5,7.5-7.5h32.551
						c4.142,0,7.5,3.357,7.5,7.5v32.549C240.951,281.848,237.593,285.205,233.451,285.205z M208.4,270.205h17.551v-17.549H208.4
						V270.205z"/>
				</g>
			</g>
			<g>
				<g>
					<path d="M120.33,343.115H87.781c-4.143,0-7.5-3.357-7.5-7.5v-32.551c0-4.143,3.357-7.5,7.5-7.5h32.549
						c4.143,0,7.5,3.357,7.5,7.5v32.551C127.83,339.758,124.473,343.115,120.33,343.115z M95.281,328.115h17.549v-17.551H95.281
						V328.115z"/>
				</g>
				<g>
					<path d="M290.01,343.115h-32.549c-4.143,0-7.5-3.357-7.5-7.5v-90.459c0-4.143,3.357-7.5,7.5-7.5h32.549
						c4.143,0,7.5,3.357,7.5,7.5v90.459C297.51,339.758,294.152,343.115,290.01,343.115z M264.961,328.115h17.549v-75.459h-17.549
						V328.115z"/>
				</g>
				<g>
					<path d="M176.891,343.115h-32.549c-4.143,0-7.5-3.357-7.5-7.5v-32.551c0-4.143,3.357-7.5,7.5-7.5h32.549
						c4.143,0,7.5,3.357,7.5,7.5v32.551C184.391,339.758,181.033,343.115,176.891,343.115z M151.842,328.115h17.549v-17.551h-17.549
						V328.115z"/>
				</g>
				<g>
					<path d="M233.451,343.115H200.9c-4.143,0-7.5-3.357-7.5-7.5v-32.551c0-4.143,3.357-7.5,7.5-7.5h32.551
						c4.142,0,7.5,3.357,7.5,7.5v32.551C240.951,339.758,237.593,343.115,233.451,343.115z M208.4,328.115h17.551v-17.551H208.4
						V328.115z"/>
				</g>
			</g>
		</g>
		<g>
			<g>
				<path d="M290.01,108.543H87.781c-4.143,0-7.5-3.357-7.5-7.5V38.068c0-4.142,3.357-7.5,7.5-7.5H290.01c4.143,0,7.5,3.358,7.5,7.5
					v62.975C297.51,105.186,294.152,108.543,290.01,108.543z M95.281,93.543H282.51V45.568H95.281V93.543z"/>
			</g>
			<g>
				<path d="M266.879,86.467c-4.143,0-7.5-3.357-7.5-7.5V60.143c0-4.143,3.357-7.5,7.5-7.5s7.5,3.357,7.5,7.5v18.824
					C274.379,83.109,271.022,86.467,266.879,86.467z"/>
			</g>
		</g>
	</g>
</g>
<g>
</g>
<g>
</g>
<g>
</g>
<g>
</g>
<g>
</g>
<g>
</g>
<g>
</g>
<g>
</g>
<g>
</g>
<g>
</g>
<g>
</g>
<g>
</g>
<g>
</g>
<g>
</g>
<g>
</g>
</svg>
