<?xml version="1.0" standalone="no"?>
<!DOCTYPE svg PUBLIC "-//W3C//DTD SVG 20010904//EN"
 "http://www.w3.org/TR/2001/REC-SVG-20010904/DTD/svg10.dtd">
<svg version="1.0" xmlns="http://www.w3.org/2000/svg"
 width="900.000000pt" height="900.000000pt" viewBox="0 0 900.000000 900.000000"
 preserveAspectRatio="xMidYMid meet">

<g transform="translate(0.000000,900.000000) scale(0.100000,-0.100000)"
fill="#000000" stroke="none">
<path d="M2039 7109 c-159 -23 -349 -89 -483 -167 -85 -50 -93 -61 -101 -137
-4 -37 -13 -68 -19 -70 -6 -2 -37 -11 -69 -20 l-59 -16 -74 -155 c-306 -641
-489 -1200 -644 -1967 -161 -799 -181 -1521 -59 -2116 25 -123 53 -208 96
-296 48 -97 89 -149 192 -248 107 -101 172 -137 249 -137 49 0 342 -46 453
-71 36 -8 52 -7 69 3 32 19 104 133 159 250 62 132 243 584 361 898 119 317
162 408 237 497 84 100 155 158 248 203 147 70 254 82 428 51 117 -22 127 -22
1516 -22 l1398 0 124 22 c109 20 134 21 209 12 164 -21 271 -74 395 -198 134
-133 149 -161 320 -615 264 -697 395 -991 482 -1079 27 -27 39 -32 61 -27 111
24 437 76 481 76 74 0 153 44 258 144 182 171 259 355 313 736 92 665 45 1334
-160 2228 -139 604 -313 1104 -575 1650 -78 161 -78 162 -119 173 -102 28 -91
14 -111 141 -5 34 -13 42 -78 80 -108 63 -239 117 -367 150 -100 26 -136 31
-275 34 -168 3 -321 -14 -336 -37 -4 -7 -11 -36 -14 -64 -10 -77 -14 -85 -43
-86 -15 0 -35 -4 -46 -8 -10 -4 -54 0 -96 10 -43 9 -125 22 -181 28 -57 7
-140 18 -184 26 -44 8 -102 16 -130 19 -102 10 -536 37 -725 45 -242 10 -956
10 -1185 0 -448 -20 -723 -39 -850 -60 -33 -6 -96 -15 -140 -20 -98 -11 -255
-38 -294 -49 -17 -5 -47 -3 -77 5 l-49 12 -11 67 c-6 37 -16 72 -23 79 -29 29
-337 46 -472 26z m427 -119 c10 -57 9 -60 -10 -60 -14 0 -17 3 -9 8 9 6 10 22
4 60 -4 29 -5 52 -1 52 3 0 11 -27 16 -60z m499 -50 c-3 -5 -16 -15 -28 -21
-22 -12 -22 -12 -3 10 19 21 43 30 31 11z m3195 -27 c0 -7 -39 17 -46 28 -3 6
5 3 20 -6 14 -10 26 -19 26 -22z m1360 -29 c0 -2 -7 -4 -15 -4 -8 0 -15 4 -15
10 0 5 7 7 15 4 8 -4 15 -8 15 -10z m-4699 -105 c-5 -13 -10 -19 -10 -12 -1
15 10 45 15 40 3 -2 0 -15 -5 -28z m68 -1 c-17 -23 -25 -52 -29 -102 l-6 -71
-7 47 c-8 49 7 104 40 140 26 28 26 21 2 -14z m3321 -18 c20 -39 27 -114 12
-137 -4 -6 -7 17 -7 52 0 50 -5 70 -22 94 -25 32 -29 46 -13 36 6 -4 19 -24
30 -45z m53 27 c3 -8 1 -20 -4 -28 -6 -10 -9 -7 -9 14 0 29 5 35 13 14z
m-3666 -59 c-2 -13 -4 -3 -4 22 0 25 2 35 4 23 2 -13 2 -33 0 -45z m3911 55
c-16 -2 -40 -2 -55 0 -16 2 -3 4 27 4 30 0 43 -2 28 -4z m1017 -3 c19 -8 19
-9 -2 -9 -12 -1 -25 4 -28 9 -7 12 2 12 30 0z m-4866 -54 c-7 -14 -16 -26 -21
-26 -5 0 -1 14 7 31 20 37 31 33 14 -5z m-99 -20 c0 -5 -7 -1 -15 10 -8 10
-14 24 -14 29 0 6 6 1 14 -9 8 -11 15 -24 15 -30z m3948 37 c-15 -2 -42 -2
-60 0 -18 2 -6 4 27 4 33 0 48 -2 33 -4z m0 -40 c-16 -2 -40 -2 -55 0 -16 2
-3 4 27 4 30 0 43 -2 28 -4z m605 -290 c-13 -2 -33 -2 -45 0 -13 2 -3 4 22 4
25 0 35 -2 23 -4z m-76 -9 c-3 -3 -12 -4 -19 -1 -8 3 -5 6 6 6 11 1 17 -2 13
-5z m-38 -8 c-2 -2 -15 -9 -29 -15 -24 -11 -24 -11 -6 3 16 13 49 24 35 12z
m168 -176 c33 -58 65 -115 72 -127 l12 -23 -166 0 -167 0 41 73 c22 39 46 71
52 69 6 -1 8 2 4 7 -3 6 11 40 31 75 44 75 32 83 121 -74z m171 -40 l-1 -45
-7 55 c-4 30 -11 64 -14 75 -3 11 0 7 8 -10 8 -16 15 -50 14 -75z m-501 -32
c-2 -13 -4 -3 -4 22 0 25 2 35 4 23 2 -13 2 -33 0 -45z m-4706 35 c10 -10 4
-10 -27 -1 -22 6 -86 8 -148 6 -61 -3 -101 -1 -90 3 30 13 251 6 265 -8z
m-300 -38 c5 4 6 -2 2 -11 -5 -13 -8 -14 -11 -4 -3 9 -9 5 -18 -11 -7 -13 -13
-18 -14 -11 0 21 23 59 28 44 2 -6 8 -10 13 -7z m349 -36 c0 -5 -4 -9 -10 -9
-5 0 -10 7 -10 16 0 8 5 12 10 9 6 -3 10 -10 10 -16z m5147 -1 c-3 -8 -6 -5
-6 6 -1 11 2 17 5 13 3 -3 4 -12 1 -19z m-5303 -44 c15 -14 26 -28 23 -31 -3
-3 -17 7 -30 23 -21 24 -27 26 -41 15 -24 -20 -20 -29 17 -34 21 -3 16 -4 -16
-4 l-48 0 28 29 c15 15 29 28 32 28 3 0 19 -12 35 -26z m5281 -13 c-21 -43
-29 -39 -8 4 9 19 18 33 21 31 2 -2 -4 -18 -13 -35z m-5138 -43 c-2 -13 -4 -5
-4 17 -1 22 1 32 4 23 2 -10 2 -28 0 -40z m-10 -100 c-2 -13 -4 -3 -4 22 0 25
2 35 4 23 2 -13 2 -33 0 -45z m-320 -30 c-3 -8 -6 -5 -6 6 -1 11 2 17 5 13 3
-3 4 -12 1 -19z m4671 -65 c-10 -2 -28 -2 -40 0 -13 2 -5 4 17 4 22 1 32 -1
23 -4z m1190 0 c-10 -2 -26 -2 -35 0 -10 3 -2 5 17 5 19 0 27 -2 18 -5z
m-1118 -13 c18 -12 2 -12 -25 0 -13 6 -15 9 -5 9 8 0 22 -4 30 -9z m1057 4
c-3 -3 -12 -4 -19 -1 -8 3 -5 6 6 6 11 1 17 -2 13 -5z m-1247 -14 c-8 -5 -19
-10 -25 -10 -5 0 -3 5 5 10 8 5 20 10 25 10 6 0 3 -5 -5 -10z m1209 7 c-16
-13 -79 -48 -79 -44 0 7 63 47 74 47 5 0 7 -1 5 -3z m-6034 -47 c60 -6 114
-15 120 -21 7 -7 5 -8 -5 -5 -38 13 -243 25 -264 15 -20 -10 -20 -10 -2 5 23
19 14 19 151 6z m1001 -5 c18 -14 17 -14 -11 -5 -16 5 -39 11 -50 13 -13 3 -9
5 11 6 16 0 39 -6 50 -14z m-87 1 c-2 -2 -44 -6 -94 -9 -53 -3 -73 -2 -50 3
42 8 151 13 144 6z m5300 -40 c53 -28 76 -72 76 -146 0 -52 -5 -72 -23 -98
-33 -45 -77 -66 -143 -66 -69 -1 -120 30 -149 90 -26 53 -25 99 3 154 42 83
147 112 236 66z m135 -24 c8 -15 17 -46 20 -67 5 -38 5 -37 -8 8 -8 26 -22 59
-31 74 -9 14 -12 22 -6 19 6 -4 17 -20 25 -34z m-6545 -4 c-5 -18 -10 -73 -10
-123 -1 -66 -4 -79 -8 -50 -9 50 -2 164 10 188 15 27 19 20 8 -15z m5251 -118
l0 -140 -140 0 -140 0 0 140 0 140 140 0 140 0 0 -140z m-370 60 c-6 -23 -9
-56 -6 -73 6 -30 5 -31 -5 -7 -8 18 -7 39 1 78 7 30 14 51 17 49 2 -3 -1 -24
-7 -47z m-3640 -161 c-9 -21 -10 -19 -5 16 2 22 6 72 7 110 2 70 2 70 5 -16 2
-47 -1 -96 -7 -110z m4831 121 c-7 -36 -9 -39 -10 -15 -1 33 11 85 16 70 1 -6
-1 -30 -6 -55z m-5921 -17 l0 -57 -30 29 -30 29 27 28 c15 15 28 28 30 28 2 0
3 -26 3 -57z m972 -35 l-32 -33 0 65 0 65 32 -33 33 -32 -33 -32z m-352 47 c0
-8 -4 -15 -10 -15 -5 0 -7 7 -4 15 4 8 8 15 10 15 2 0 4 -7 4 -15z m-290 -9
c0 -3 -4 -8 -10 -11 -5 -3 -10 -1 -10 4 0 6 5 11 10 11 6 0 10 -2 10 -4z m405
-111 c22 -21 31 -33 20 -25 -30 21 -125 113 -125 122 0 4 15 -7 33 -25 17 -18
50 -50 72 -72z m-878 53 c-3 -8 -6 -5 -6 6 -1 11 2 17 5 13 3 -3 4 -12 1 -19z
m5350 0 c-3 -8 -6 -5 -6 6 -1 11 2 17 5 13 3 -3 4 -12 1 -19z m-5340 -80 c-3
-8 -6 -5 -6 6 -1 11 2 17 5 13 3 -3 4 -12 1 -19z m626 -15 c-7 -2 -21 -2 -30
0 -10 3 -4 5 12 5 17 0 24 -2 18 -5z m-195 -258 c-11 -113 -17 -150 -24 -142
-7 6 13 225 22 238 11 18 11 7 2 -96z m2811 61 c9 -8 35 -20 57 -25 28 -6 -13
-9 -151 -9 -104 0 -174 4 -155 7 19 4 53 18 75 30 33 18 51 21 98 18 33 -3 66
-12 76 -21z m2474 -3 c-7 -2 -21 -2 -30 0 -10 3 -4 5 12 5 17 0 24 -2 18 -5z
m-113 -23 c-8 -5 -19 -10 -25 -10 -5 0 -3 5 5 10 8 5 20 10 25 10 6 0 3 -5 -5
-10z m-4965 -130 l-28 -29 -31 27 -32 27 56 5 c30 3 57 4 59 2 3 -1 -8 -16
-24 -32z m4833 -17 c-22 -63 -35 -85 -24 -39 9 35 33 96 39 96 2 0 -5 -26 -15
-57z m477 -33 c4 -19 4 -32 0 -28 -4 3 -10 21 -14 40 -5 18 -11 44 -14 58 -5
20 -4 19 7 -5 7 -16 17 -46 21 -65z m-317 27 c29 -29 49 -56 45 -60 -7 -8
-113 91 -113 105 0 18 18 5 68 -45z m202 45 c0 -14 -99 -106 -116 -108 -10 -2
9 23 42 57 55 56 74 69 74 51z m-5049 -79 c-12 -20 -14 -14 -5 12 4 9 9 14 11
11 3 -2 0 -13 -6 -23z m-331 -24 c0 -6 -4 -7 -10 -4 -5 3 -10 11 -10 16 0 6 5
7 10 4 6 -3 10 -11 10 -16z m5377 -156 c-10 -9 -124 104 -124 123 0 9 29 -13
66 -50 36 -36 62 -69 58 -73z m-150 113 c0 -20 -103 -120 -115 -112 -6 3 18
33 51 66 34 33 62 60 63 60 0 0 1 -7 1 -14z m-2520 -252 c30 -9 53 -18 50 -20
-2 -2 -30 4 -63 15 -72 23 -63 27 13 5z m120 -86 c-3 -8 -6 -5 -6 6 -1 11 2
17 5 13 3 -3 4 -12 1 -19z m51 -145 c-10 -2 -28 -2 -40 0 -13 2 -5 4 17 4 22
1 32 -1 23 -4z"/>
<path d="M7075 6315 c-8 -31 -111 -216 -125 -225 -4 -3 57 -5 136 -5 133 0
166 5 130 18 -19 8 -78 116 -70 129 4 6 3 8 -3 5 -9 -6 -28 24 -51 83 l-10 25
-7 -30z"/>
<path d="M7647 5704 c-4 -4 -17 -8 -30 -9 -12 -1 -22 -7 -22 -12 0 -15 -14
-28 -28 -28 -7 0 -12 -7 -12 -15 -1 -8 -5 -32 -9 -52 -5 -24 -3 -50 5 -75 7
-21 12 -41 11 -45 -2 -8 26 -31 42 -35 6 -1 29 -8 52 -14 49 -15 83 -7 125 28
59 50 74 123 39 181 -11 18 -18 37 -15 42 3 6 0 7 -8 4 -8 -3 -18 0 -23 7 -5
8 -3 10 7 4 8 -5 11 -4 6 0 -8 10 -21 13 -87 21 -25 3 -48 2 -53 -2z m-56
-251 c13 -16 12 -17 -3 -4 -10 7 -18 15 -18 17 0 8 8 3 21 -13z"/>
<path d="M6355 5560 l0 -125 125 0 125 0 0 125 0 125 -125 0 -125 0 0 -125z"/>
<path d="M1492 5588 c-16 -16 -15 -33 3 -48 13 -11 15 -7 15 24 0 40 -1 41
-18 24z"/>
<path d="M2470 5563 c0 -36 0 -36 20 -18 19 17 19 19 4 37 -23 24 -24 24 -24
-19z"/>
<path d="M1973 5063 c16 -16 18 -16 34 0 16 16 15 17 -17 17 -32 0 -33 -1 -17
-17z"/>
<path d="M7005 5030 c27 -27 51 -50 54 -50 3 0 -17 23 -44 50 -27 28 -51 50
-54 50 -3 0 17 -22 44 -50z"/>
<path d="M7155 5028 l-50 -53 53 50 c48 46 57 55 49 55 -1 0 -25 -24 -52 -52z"/>
<path d="M7150 4885 c30 -30 57 -55 59 -55 3 0 -19 25 -49 55 -30 30 -57 55
-59 55 -3 0 19 -25 49 -55z"/>
<path d="M7005 4878 l-50 -53 53 50 c48 46 57 55 49 55 -1 0 -25 -24 -52 -52z"/>
</g>
</svg>
