<?xml version="1.0" standalone="no"?>
<!DOCTYPE svg PUBLIC "-//W3C//DTD SVG 20010904//EN"
 "http://www.w3.org/TR/2001/REC-SVG-20010904/DTD/svg10.dtd">
<svg version="1.0" xmlns="http://www.w3.org/2000/svg"
 width="1280.000000pt" height="395.000000pt" viewBox="0 0 1280.000000 395.000000"
 preserveAspectRatio="xMidYMid meet">

<g transform="translate(0.000000,395.000000) scale(0.100000,-0.100000)"
fill="#000000" stroke="none">
<path d="M7819 3108 c-13 -13 -147 -251 -298 -530 -150 -280 -275 -508 -277
-508 -2 0 -56 103 -119 229 -63 126 -119 232 -124 236 -10 6 -153 -84 -165
-104 -15 -23 19 -21 55 4 23 14 42 25 44 23 1 -2 62 -121 134 -265 72 -145
137 -263 144 -263 6 0 17 4 23 8 7 4 147 259 312 567 l301 560 2150 3 2151 2
0 30 0 30 -2154 0 -2153 0 -24 -22z"/>
<path d="M8620 2975 c-58 -18 -107 -66 -116 -113 -9 -47 5 -67 47 -67 28 0 35
5 44 29 8 24 6 31 -13 46 -31 26 -28 35 21 59 70 34 135 25 189 -26 37 -35 45
-82 24 -138 -20 -51 -60 -93 -208 -218 -60 -50 -108 -96 -108 -104 0 -10 39
-13 194 -13 220 0 197 -10 215 94 6 33 11 61 11 63 0 2 -9 3 -20 3 -14 0 -20
-7 -20 -23 0 -52 -15 -58 -145 -55 l-120 3 90 64 c179 128 215 169 215 242 0
113 -164 198 -300 154z"/>
<path d="M6177 2924 c-4 -4 -7 -97 -7 -206 l0 -198 -200 0 c-170 0 -202 -2
-206 -15 -4 -8 -1 -22 6 -30 10 -12 47 -15 206 -15 l194 0 0 -169 0 -169 -195
-4 c-198 -3 -225 -8 -212 -42 6 -14 55 -16 432 -16 377 0 426 2 432 16 13 34
-14 39 -212 42 l-195 4 0 169 0 169 194 0 c159 0 196 3 206 15 7 8 10 22 6 30
-4 13 -36 15 -205 15 l-201 0 -2 202 c-3 174 -5 203 -18 206 -9 1 -19 0 -23
-4z"/>
<path d="M5295 2903 c-78 -5 -95 -11 -95 -33 0 -17 7 -20 40 -20 33 0 40 -3
40 -20 0 -10 -30 -138 -66 -284 -63 -255 -65 -267 -54 -321 20 -95 79 -145
173 -145 210 0 379 308 255 466 -26 32 -91 63 -134 64 -17 0 -57 -13 -88 -28
-31 -16 -56 -27 -56 -25 0 2 18 76 40 165 23 89 39 167 36 175 -3 7 -13 12
-23 11 -10 -1 -40 -3 -68 -5z m216 -359 c21 -22 24 -34 23 -92 -2 -80 -42
-212 -79 -262 -31 -43 -91 -80 -127 -80 -46 0 -80 39 -86 98 -7 80 34 247 73
291 66 75 149 95 196 45z"/>
<path d="M8033 2900 c-79 -7 -89 -11 -80 -35 4 -9 19 -15 41 -15 19 0 37 -3
40 -8 2 -4 -24 -124 -60 -266 -38 -152 -64 -279 -64 -310 1 -197 212 -252 369
-95 59 60 93 130 99 205 6 85 -4 128 -39 169 -61 69 -148 80 -235 30 l-41 -24
39 160 c49 206 49 200 21 198 -10 -1 -51 -5 -90 -9z m212 -336 c23 -9 45 -58
45 -102 0 -54 -34 -180 -65 -241 -69 -136 -211 -148 -230 -19 -6 42 20 191 46
259 28 73 137 128 204 103z"/>
<path d="M10542 2828 c-177 -237 -362 -506 -362 -525 l0 -23 176 0 176 0 -4
-65 c-2 -35 -7 -67 -11 -71 -4 -4 -32 -9 -62 -12 -46 -4 -55 -8 -55 -23 0 -18
11 -19 175 -19 168 0 175 1 175 20 0 17 -7 20 -41 20 -69 0 -79 11 -79 85 l0
65 65 0 c58 0 65 2 65 20 0 18 -7 20 -65 20 l-65 0 0 264 c0 145 -3 271 -6
280 -12 30 -43 16 -82 -36z m-12 -298 l0 -210 -151 0 c-118 0 -150 3 -146 13
6 16 288 407 293 407 2 0 4 -94 4 -210z"/>
<path d="M11095 2590 c-126 -49 -216 -180 -216 -316 0 -111 56 -183 152 -192
61 -6 84 0 141 38 l46 30 35 -35 c30 -30 42 -35 80 -35 56 0 88 24 115 87 28
66 31 97 10 101 -12 2 -20 -10 -32 -51 -19 -67 -50 -107 -81 -107 -47 0 -46
46 5 250 22 88 40 170 40 184 0 43 -49 54 -77 18 -12 -14 -15 -13 -35 6 -49
45 -104 52 -183 22z m150 -44 c39 -39 40 -66 5 -207 -29 -115 -37 -135 -67
-164 -68 -66 -133 -81 -178 -42 -38 32 -42 90 -16 202 36 152 103 235 187 235
34 0 51 -6 69 -24z"/>
<path d="M11869 2596 c-229 -61 -342 -341 -190 -469 46 -38 93 -50 185 -45 60
3 95 11 136 31 68 32 129 92 112 109 -8 8 -20 3 -49 -22 -64 -56 -137 -85
-221 -85 -71 0 -75 1 -103 33 -26 29 -29 40 -29 96 0 128 61 256 145 303 46
26 140 31 169 10 16 -12 15 -14 -8 -36 -42 -39 -30 -91 21 -91 59 0 85 89 39
135 -42 42 -121 54 -207 31z"/>
<path d="M4153 2394 c-15 -41 13 -44 397 -44 384 0 412 3 397 44 -6 14 -44 16
-397 16 -353 0 -391 -2 -397 -16z"/>
<path d="M9217 2403 c-15 -14 -6 -41 16 -47 29 -8 715 -8 745 0 15 4 22 14 22
30 l0 24 -388 0 c-214 0 -392 -3 -395 -7z"/>
<path d="M882 2129 c-71 -36 -172 -170 -172 -231 0 -34 35 -20 49 20 48 137
177 230 259 188 39 -20 56 -71 47 -134 -12 -83 -95 -403 -115 -442 -29 -58
-84 -100 -128 -100 -20 0 -47 3 -59 6 -21 6 -21 7 12 39 40 37 47 81 17 108
-48 44 -132 -7 -132 -80 0 -30 7 -45 28 -65 31 -29 81 -48 125 -48 47 0 116
39 146 81 26 38 41 48 41 29 0 -22 64 -80 105 -96 82 -31 184 2 254 81 63 73
106 191 65 183 -9 -2 -24 -25 -35 -52 -37 -99 -108 -171 -182 -183 -79 -12
-117 24 -117 112 0 42 76 370 102 440 35 94 98 142 174 130 41 -6 72 -25 40
-25 -18 0 -66 -56 -66 -79 0 -33 29 -61 64 -61 67 0 112 68 84 127 -48 100
-222 97 -296 -5 l-26 -38 -31 41 c-17 22 -46 48 -65 57 -49 25 -134 23 -188
-3z"/>
<path d="M2153 2023 c-23 -9 -15 -52 10 -58 12 -3 260 -4 551 -3 498 3 529 4
540 21 9 15 7 21 -8 33 -17 12 -103 14 -550 13 -292 0 -537 -3 -543 -6z"/>
<path d="M4010 1815 l0 -35 4060 0 4060 0 0 35 0 35 -4060 0 -4060 0 0 -35z"/>
<path d="M2147 1693 c-14 -13 -7 -43 12 -53 13 -6 202 -10 543 -10 441 0 527
2 544 14 15 12 17 18 8 33 -11 17 -43 18 -556 21 -299 1 -548 -1 -551 -5z"/>
<path d="M7610 1591 c-65 -23 -136 -94 -145 -145 -11 -56 -2 -89 28 -106 24
-13 30 -13 55 0 45 26 39 110 -8 110 -29 0 -24 22 13 57 47 44 69 53 135 53
65 0 108 -21 146 -73 17 -23 21 -43 21 -105 0 -118 -18 -146 -222 -349 -114
-113 -173 -179 -173 -193 0 -20 3 -20 242 -18 l242 3 12 80 c7 44 15 92 18
108 5 22 2 27 -14 27 -13 0 -22 -9 -26 -27 -17 -78 -16 -78 -80 -84 -32 -4
-108 -7 -168 -8 l-109 -1 19 21 c10 11 64 57 119 102 200 164 247 219 261 305
9 57 -11 122 -52 170 -66 78 -208 111 -314 73z"/>
<path d="M8325 1316 c-57 -26 -133 -103 -165 -167 -25 -47 -37 -145 -26 -203
10 -50 70 -111 124 -125 56 -15 103 -6 161 34 l48 32 31 -32 c48 -52 122 -55
164 -8 21 23 55 99 60 133 2 17 -2 25 -12 25 -9 0 -23 -22 -35 -58 -27 -74
-48 -99 -83 -95 -24 3 -27 8 -30 44 -2 24 14 108 38 204 23 90 40 175 38 189
-4 35 -42 40 -74 10 -13 -12 -24 -18 -24 -12 0 6 -15 21 -34 32 -46 29 -117
28 -181 -3z m148 -17 c28 -13 57 -58 57 -89 0 -19 -16 -90 -51 -222 -24 -94
-148 -166 -219 -128 -46 25 -49 125 -9 255 45 148 136 223 222 184z"/>
</g>
</svg>
