<svg xmlns="http://www.w3.org/2000/svg" xmlns:xlink="http://www.w3.org/1999/xlink" version="1.1" x="0px" y="0px" viewBox="0 0 100 125" style="enable-background:new 0 0 100 100;" xml:space="preserve"><path d="M36.5,55.5h44.9c3,0,5.5-2.5,5.5-5.5v0c0-3-2.5-5.5-5.5-5.5H36.5c-3,0-5.5,2.5-5.5,5.5v0C31,53,33.4,55.5,36.5,55.5z"/><path d="M55.9,86.9h25.4c3,0,5.5-2.5,5.5-5.5v0c0-3-2.5-5.5-5.5-5.5H55.9c-3,0-5.5,2.5-5.5,5.5v0C50.4,84.5,52.9,86.9,55.9,86.9z"/><path d="M19,24h62.4c3,0,5.5-2.5,5.5-5.5v0c0-3-2.5-5.5-5.5-5.5H19c-3,0-5.5,2.5-5.5,5.5v0C13.5,21.5,15.9,24,19,24z"/><text x="0" y="115" fill="#000000" font-size="5px" font-weight="bold" font-family="'Helvetica Neue', Helvetica, Arial-Unicode, Arial, Sans-serif">Created by Shiva</text><text x="0" y="120" fill="#000000" font-size="5px" font-weight="bold" font-family="'Helvetica Neue', Helvetica, Arial-Unicode, Arial, Sans-serif">from the Noun Project</text></svg>