<svg xmlns="http://www.w3.org/2000/svg" viewBox="0 0 21 21"><path d="M10.5,19.2A8.8,8.8,0,0,1,6.1,18H5.4l-2.8.8,1-2.2a.9.9,0,0,0-.1-.9,8.6,8.6,0,0,1,7-13.7,8.5,8.5,0,0,1,8.6,8.6A8.6,8.6,0,0,1,10.5,19.2ZM10.5,0A10.5,10.5,0,0,0,1.7,16.2L.1,19.7a.9.9,0,0,0,.1,1,1.1,1.1,0,0,0,.7.3h.3l4.3-1.2a11.1,11.1,0,0,0,5,1.2,10.5,10.5,0,0,0,0-21Z" transform="translate(0 0)" fill="#1f1f1f" fill-rule="evenodd"/><path d="M14.5,12.1a1.7,1.7,0,0,0-1.5-.4c-.4.2-.7.8-.9,1.1s-.3.2-.5.1A6.6,6.6,0,0,1,8.1,10a.5.5,0,0,1,.1-.6c.2-.3.6-.6.6-1a1.7,1.7,0,0,0-.3-1.2,2.6,2.6,0,0,0-.9-1.4A1.3,1.3,0,0,0,6.3,6a3.1,3.1,0,0,0-.9,2.2,1.3,1.3,0,0,0,.1.6,3.4,3.4,0,0,0,.6,1.5l.7,1.1a10.6,10.6,0,0,0,2.9,2.7,11.1,11.1,0,0,0,1.9.9,3.7,3.7,0,0,0,2.1.3,2.5,2.5,0,0,0,1.9-1.4,1.1,1.1,0,0,0,.1-.8c-.1-.5-.8-.8-1.2-1" transform="translate(0 0)" fill="#1f1f1f" fill-rule="evenodd"/></svg>